<svg viewBox="0 0 960 540" width="960" height="540" fill="none" xmlns="http://www.w3.org/2000/svg">
<path d="M139.45 259.996C222.928 349.956 335.85 357.845 433.444 417.919C531.037 477.994 613.452 590.103 593.721 683.552C574.141 777.002 442.718 587.372 351.5 683.552C260.282 779.581 92.2458 680.973 11.5 683.552C-69.3975 685.98 51.6989 600.954 -72 565C-195.699 529.198 -104.886 590.607 -144.5 541C-184.114 491.393 -246.369 601.814 -270.35 471.5C-294.179 341.338 -272.659 388.045 -242 339.5C-211.341 290.955 -258.637 335.847 -144.5 259.996C-30.3632 184.144 -104.305 1.9476 -51.3345 0.127155C1.78776 -1.54159 55.9724 170.187 139.45 259.996Z" fill="#FFFECB"/>
</svg>
