<svg viewBox="0 0 960 540" width="960" height="540" fill="none" xmlns="http://www.w3.org/2000/svg">
<path d="M475.876 185.242C388.991 94.9775 271.459 87.0623 169.882 26.7847C68.3051 -33.4929 -17.4743 -145.981 3.06226 -239.746C23.4408 -333.511 160.229 -143.241 255.171 -239.746C350.113 -336.099 525.008 -237.158 609.049 -239.746C693.249 -242.181 567.21 -156.868 695.958 -120.793C824.706 -84.8699 730.186 -146.486 771.417 -96.7118C812.649 -46.9371 877.445 -157.731 902.404 -26.9771C927.206 103.624 904.808 56.7596 872.897 105.469C840.987 154.178 890.213 109.134 771.417 185.242C652.621 261.35 729.582 444.161 674.449 445.988C619.158 447.662 562.762 275.354 475.876 185.242Z" fill="#01020A"/>
</svg>
